<svg width="1921" height="1080" viewBox="0 0 1921 1080" xmlns="http://www.w3.org/2000/svg" xmlns:xlink="http://www.w3.org/1999/xlink" fill="none" overflow="hidden"><style>
.MsftOfcThm_Text1_Fill_v2 {
 fill:#262626; 
}
</style>
<path d="M472.469 542.092 447.924 470.914 447.631 470.056 426.951 470.056 402.118 542.093 377.087 470.057 355.501 470.057 393.861 574.142 394.164 574.971 410.494 574.97 437.291 497.053 463.795 574.115 464.089 574.97 480.422 574.97 519.084 470.055 497.501 470.056 472.469 542.092Z" class="MsftOfcThm_Text1_Fill_v2" stroke="none" stroke-width="1" stroke-linecap="butt" stroke-linejoin="miter" stroke-miterlimit="4" fill="#262626" fill-rule="evenodd" fill-opacity="1" clip-rule="evenodd"/><path d="M570.768 486.738C587.696 486.737 600.802 497.664 603.123 513.474L538.442 513.475C540.586 500.824 550.169 486.738 570.768 486.738ZM570.957 467.694C539.595 467.694 516.837 490.707 516.837 522.417 516.837 549.712 536.441 577.333 573.902 577.332 592.194 577.332 607.166 570.138 621.023 554.702L621.922 553.703 606.351 541.282 605.551 542.221C596.608 552.733 585.592 558.288 573.706 558.289 555.749 558.289 541.777 547.21 538.482 530.565L625.868 530.564 625.868 529.29C625.869 492.451 603.802 467.693 570.957 467.694Z" class="MsftOfcThm_Text1_Fill_v2" stroke="none" stroke-width="1" stroke-linecap="butt" stroke-linejoin="miter" stroke-miterlimit="4" fill="#262626" fill-rule="evenodd" fill-opacity="1" clip-rule="evenodd"/><path d="M658.475 541.666C658.475 541.666 658.476 466.479 658.476 442.676 658.476 418.859 638.243 423.092 638.243 423.092L638.242 543.04C638.242 563.626 648.328 574.965 666.639 574.965L675.174 574.965 675.174 555.917 668.603 555.917C662.16 555.917 658.475 550.723 658.475 541.666Z" class="MsftOfcThm_Text1_Fill_v2" stroke="none" stroke-width="1" stroke-linecap="butt" stroke-linejoin="miter" stroke-miterlimit="4" fill="#262626" fill-rule="evenodd" fill-opacity="1" clip-rule="evenodd"/><path d="M1028.48 541.666C1028.48 541.666 1028.48 466.479 1028.48 442.676 1028.49 418.859 1008.26 423.092 1008.26 423.092L1008.26 543.04C1008.26 563.626 1018.34 574.965 1036.65 574.965L1045.19 574.965 1045.19 555.917 1038.61 555.917C1032.17 555.917 1028.48 550.723 1028.48 541.666Z" class="MsftOfcThm_Text1_Fill_v2" stroke="none" stroke-width="1" stroke-linecap="butt" stroke-linejoin="miter" stroke-miterlimit="4" fill="#262626" fill-rule="evenodd" fill-opacity="1" clip-rule="evenodd"/><path d="M734.008 486.739C753.459 486.738 769.283 502.827 769.283 522.614 769.283 541.614 752.801 558.284 734.007 558.284 715.214 558.284 698.726 541.615 698.726 522.615 698.726 502.828 714.554 486.739 734.008 486.739ZM734.001 467.695C702.217 467.696 677.322 491.815 677.321 522.618 677.321 554.328 701.155 577.335 734 577.334 766.835 577.334 790.673 554.327 790.673 522.617 790.673 491.814 765.779 467.695 734.001 467.695Z" class="MsftOfcThm_Text1_Fill_v2" stroke="none" stroke-width="1" stroke-linecap="butt" stroke-linejoin="miter" stroke-miterlimit="4" fill="#262626" fill-rule="evenodd" fill-opacity="1" clip-rule="evenodd"/><path d="M852.864 486.736C861.437 486.736 868.93 489.954 875.752 496.599L876.719 497.537 890.4 481.603 889.439 480.774C882.133 474.452 868.633 467.694 852.664 467.694 823.034 467.694 798.93 492.418 798.93 522.803 798.93 553.884 821.947 577.324 852.457 577.324 866.808 577.323 879.691 572.236 888.738 562.992L889.522 562.186 877.554 547.274 876.551 548.206C869.706 554.609 861.717 558.281 854.62 558.281 834.75 558.282 820.329 543.602 820.329 523.393 820.329 498.073 836.669 486.736 852.864 486.736Z" class="MsftOfcThm_Text1_Fill_v2" stroke="none" stroke-width="1" stroke-linecap="butt" stroke-linejoin="miter" stroke-miterlimit="4" fill="#262626" fill-rule="evenodd" fill-opacity="1" clip-rule="evenodd"/><path d="M943.854 559.262C927.519 559.262 917.769 552.092 917.769 540.095 917.77 528.099 927.52 520.928 943.854 520.928 960.191 520.928 969.941 528.098 969.941 540.095 969.941 552.091 960.191 559.262 943.854 559.262ZM944.007 467.697C931.634 467.698 919.393 470.3 906.581 475.659L905.301 476.188 914.176 493.255 915.292 492.707C924.963 487.97 933.78 485.761 943.02 485.761 956.425 485.761 972.402 489.117 972.402 505.124L972.402 513.004C964.03 506.365 953.591 502.876 942.037 502.876 910.656 502.877 896.374 521.766 896.373 539.323 896.373 561.704 915.229 577.336 942.236 577.336 955.202 577.336 964.996 573.74 973.585 565.74L973.585 574.978 992.628 574.978 992.629 503.753C992.629 477.145 966.438 467.697 944.007 467.697Z" class="MsftOfcThm_Text1_Fill_v2" stroke="none" stroke-width="1" stroke-linecap="butt" stroke-linejoin="miter" stroke-miterlimit="4" fill="#262626" fill-rule="evenodd" fill-opacity="1" clip-rule="evenodd"/><path d="M1180.4 470.056 1094.33 470.057C1094.33 470.057 1092.4 488.119 1109.53 488.119 1126.67 488.119 1146.59 488.118 1146.59 488.118L1093.14 574.969 1180.87 574.969C1180.87 574.969 1183.44 556.91 1162.71 556.91 1149.3 556.91 1127.35 556.91 1127.35 556.91L1180.4 470.056Z" class="MsftOfcThm_Text1_Fill_v2" stroke="none" stroke-width="1" stroke-linecap="butt" stroke-linejoin="miter" stroke-miterlimit="4" fill="#262626" fill-rule="evenodd" fill-opacity="1" clip-rule="evenodd"/><path d="M1232.01 486.738C1248.93 486.737 1262.05 497.664 1264.37 513.474L1199.68 513.475C1201.83 500.824 1211.41 486.738 1232.01 486.738ZM1287.1 529.29C1287.1 492.451 1265.04 467.693 1232.2 467.694 1200.83 467.694 1178.08 490.707 1178.08 522.417 1178.08 549.712 1197.68 577.333 1235.14 577.332 1253.44 577.332 1268.4 570.138 1282.26 554.702L1283.15 553.703 1267.59 541.282 1266.79 542.221C1257.84 552.733 1246.83 558.288 1234.95 558.289 1216.99 558.289 1203.02 547.21 1199.71 530.565L1287.1 530.564 1287.1 529.29Z" class="MsftOfcThm_Text1_Fill_v2" stroke="none" stroke-width="1" stroke-linecap="butt" stroke-linejoin="miter" stroke-miterlimit="4" fill="#262626" fill-rule="evenodd" fill-opacity="1" clip-rule="evenodd"/><path d="M1078.27 575.825C1078.28 553.275 1078.28 507.389 1078.28 489.737 1078.28 465.92 1058.06 470.154 1058.06 470.154L1058.06 575.825 1078.27 575.825Z" class="MsftOfcThm_Text1_Fill_v2" stroke="none" stroke-width="1" stroke-linecap="butt" stroke-linejoin="miter" stroke-miterlimit="4" fill="#262626" fill-rule="evenodd" fill-opacity="1" clip-rule="evenodd"/><path d="M1067.07 435.132C1060.05 435.132 1054.33 440.852 1054.33 447.877 1054.33 454.905 1060.05 460.625 1067.07 460.625 1074.1 460.625 1079.82 454.905 1079.82 447.877 1079.82 440.851 1074.1 435.132 1067.07 435.132Z" class="MsftOfcThm_Text1_Fill_v2" stroke="none" stroke-width="1" stroke-linecap="butt" stroke-linejoin="miter" stroke-miterlimit="4" fill="#262626" fill-rule="evenodd" fill-opacity="1" clip-rule="evenodd"/><path d="M1382.2 493.868C1382.2 493.868 1383.35 499.558 1385.09 503.286 1386.82 507.011 1386.76 508.417 1389.34 511.685 1391.93 514.954 1389.18 513.42 1394.05 517.375 1398.93 521.328 1398.93 521.328 1398.93 521.328 1398.93 521.328 1392.35 514.724 1390.75 511.75 1389.14 508.776 1387.41 505.05 1386.56 501.945 1385.71 498.837 1384.36 497.366 1384 492.623 1382.95 478.837 1382.27 492.462 1382.2 493.868Z" class="MsftOfcThm_Text1_Fill_v2" stroke="none" stroke-width="1" stroke-linecap="butt" stroke-linejoin="miter" stroke-miterlimit="4" fill="#262626" fill-rule="evenodd" fill-opacity="1" clip-rule="evenodd"/><path d="M1434.33 434.442C1434.33 434.442 1425.05 434.169 1418.91 435.876 1415.07 436.941 1410.71 438.948 1406.96 441.338 1403.2 443.728 1402.18 444.069 1398.77 446.8 1396.31 448.767 1393.64 451.921 1391.59 456.018 1389.55 460.114 1388.86 461.822 1387.5 464.895 1386.13 467.968 1386.13 470.016 1385.45 474.112 1384.77 478.21 1384.08 484.695 1384.08 484.695 1384.08 484.695 1382.04 477.528 1384.77 468.65 1385.45 466.431 1386.03 464.339 1386.51 462.451L1386.47 462.044C1383.21 468.759 1381.37 476.333 1381.37 484.349 1381.37 511.992 1403.24 534.403 1430.21 534.403 1457.19 534.403 1479.06 511.992 1479.06 484.349 1479.06 458.136 1459.41 436.636 1434.38 434.468L1434.33 434.442ZM1383.75 553.801C1381.64 551.852 1379.53 548.611 1379.53 548.611 1379.53 548.611 1380.25 550.739 1382.88 554.002 1385.51 557.264 1388.94 559.195 1388.94 559.195 1388.94 559.195 1385.86 555.751 1383.75 553.801ZM1503.69 440.761C1506.52 444.418 1508.98 450.508 1508.98 450.508 1508.98 450.508 1508.44 446.502 1505.15 440.372 1501.86 434.244 1496.89 430.64 1496.89 430.64 1496.89 430.64 1500.86 437.105 1503.69 440.761ZM1393.62 557.466C1389.55 555.259 1384.85 550.677 1384.85 550.677 1384.85 550.677 1386.95 554.127 1392.44 558.411 1397.92 562.692 1403.92 563.987 1403.92 563.987 1403.92 563.987 1397.69 559.668 1393.62 557.466ZM1419.66 571.189C1410.04 569.876 1432.64 578.557 1428.99 577.557 1425.72 576.657 1406.46 570.642 1397.24 565.778 1394.52 564.342 1392.14 563.085 1389.3 561.425 1388.29 560.833 1386.48 559.262 1385.46 558.608 1378.17 553.921 1372.66 547.598 1369.69 545.446 1366.87 543.403 1380.19 557.377 1379.32 557.071 1374.2 555.28 1363.7 542.477 1358.32 532.491 1354.3 525.024 1351.69 516.344 1350.89 513.799 1346.8 500.741 1346.54 489.987 1346.8 468.99 1347.09 445.165 1367.54 423.413 1374.71 418.036 1376.71 416.533 1379.18 414.073 1383.41 411.122 1389.01 407.224 1391.79 404.685 1401.34 401.393 1406.58 399.587 1418.25 396.894 1424.89 396.528 1452.8 394.991 1465.86 403.698 1483.02 414.194 1487.38 416.864 1491.19 420.296 1494.59 424.146 1499.76 429.996 1492.59 420.747 1496.33 424.181 1499.41 426.998 1501.52 430.043 1502.74 431.863 1505.29 435.703 1505.09 434.737 1506.57 437.751 1508.55 441.771 1510.16 445.946 1511.69 454.562 1512.2 457.413 1513.67 459.878 1514.51 462.333 1519.89 477.952 1516.56 495.62 1513.74 509.191 1510.93 522.761 1496.87 539.592 1493.26 544.781 1489.93 549.561 1487.37 551.952 1471.49 561.937 1454.17 572.834 1438.46 571.924 1438.46 571.924L1431.49 572.136C1427.4 571.996 1423.48 571.71 1419.66 571.189Z" class="MsftOfcThm_Text1_Fill_v2" stroke="none" stroke-width="1" stroke-linecap="butt" stroke-linejoin="miter" stroke-miterlimit="4" fill="#262626" fill-rule="evenodd" fill-opacity="1" clip-rule="evenodd"/><path d="M1546.71 593.218C1547.12 593.456 1547.37 593.218 1547.51 592.646 1547.12 592.393 1546.84 592.577 1546.71 593.218ZM1541.77 604.414C1542.07 604.633 1542.2 604.28 1542.31 603.882 1542.09 603.917 1541.87 603.961 1541.77 604.414ZM1540.41 606.301C1540.66 606.377 1540.92 606.447 1541.01 605.962 1540.8 606.046 1540.51 605.858 1540.41 606.301ZM1536.63 612.647C1536.57 613.325 1537.17 612.948 1537.41 612.859 1537.36 612.245 1537.93 611.92 1537.67 611.391 1537.22 611.473 1537.05 612.466 1536.63 612.647ZM1547.01 581.416C1547.53 581.869 1547.62 581.887 1548.01 582.372 1547.92 582.648 1547.83 582.923 1547.74 583.195 1548.16 583.495 1548.4 583.244 1548.71 583.184 1548.68 582.758 1548.5 582.485 1548.83 582.123 1548.68 581.657 1547.95 581.53 1548.02 580.944 1547.57 580.711 1547.17 580.675 1547.01 581.416ZM1534.2 614.824C1534.53 614.744 1536.56 614.659 1535.89 616.262 1536.23 616.503 1536.21 615.55 1536.49 615.59 1536.41 614.887 1535.65 614.692 1535.31 614.401 1535.38 613.835 1535.78 614.373 1535.87 613.871 1535.13 613.596 1534.74 614.461 1534.2 614.824ZM1545.07 581.775C1545 581.957 1544.94 582.136 1544.88 582.315 1545.4 582.125 1545.38 582.855 1545.72 582.717 1545.98 582.079 1545.81 581.553 1546.35 581.588 1546.42 581.316 1546.03 581.328 1546.17 581.021 1545.63 581.172 1545.88 582.315 1545.07 581.775ZM1531.39 620.505C1531.28 621.047 1531.1 621.624 1531.23 622.024 1531.56 622.132 1531.7 621.634 1532.04 621.773 1532.26 621.363 1532.19 621.105 1532.27 620.768 1531.77 620.59 1531.75 620.246 1531.39 620.505ZM1543.17 585.498C1542.91 585.688 1542.43 586.367 1542.89 586.644 1543.01 586.24 1543.17 585.961 1543.39 585.916 1543.8 586.085 1543.54 586.641 1543.63 586.987 1543.99 586.876 1544.16 586.191 1544.42 585.764 1544.33 585.382 1544.2 585.015 1544.22 584.562 1544.33 584.39 1544.41 584.632 1544.39 584.8 1544.6 584.927 1544.6 584.333 1544.72 584.162 1543.97 583.49 1542.63 584.739 1543.17 585.498ZM1543.13 580.693C1543.54 580.986 1543.58 580.05 1544.04 580.489 1544.41 579.806 1544.15 579.485 1544.36 578.886 1543.36 578.695 1542.57 579.588 1543.13 580.693ZM1533.74 583.25C1533.94 583.2 1534.09 583.013 1534.19 582.662 1533.78 582.449 1533.79 582.887 1533.74 583.25ZM1530.11 603.371C1530.87 604.175 1537.18 596.833 1537.42 595.968 1535.52 598.226 1534.13 599.788 1533.27 599.49 1533.03 600.245 1531.59 601.145 1531.37 601.836L1530.11 603.371ZM1549.72 593.364C1549.89 593.786 1549.37 594.093 1549.49 594.374 1550.2 594.799 1549.99 593.719 1550.28 593.16 1550.09 593.225 1549.94 593.425 1549.72 593.364ZM1550.31 591.591C1550.68 591.984 1551.25 590.41 1550.88 590.273 1550.58 590.502 1550.71 591.253 1550.31 591.591ZM1549.21 596.63C1549.48 596.036 1549.06 595.838 1549.17 595.335 1548.67 595.34 1548.79 596.465 1549.21 596.63ZM1547.84 598.058C1548.15 598.199 1548.23 598.707 1548.53 598.539 1548.94 597.725 1548.09 597.039 1547.84 598.058ZM1551.74 586.048C1552.05 585.359 1551.91 584.926 1552.25 584.219 1552.14 584.169 1552.04 584.119 1551.93 584.07 1551.69 584.44 1551.38 585.68 1551.74 586.048ZM1548.49 589.13C1548.38 589.628 1548.91 589.573 1549.17 589.612 1549.04 589.954 1548.84 590.073 1548.57 589.968 1548.42 590.489 1548.76 590.732 1548.6 591.253 1548.97 591.249 1549.42 590.036 1549.66 590.648 1549.86 590.392 1550.37 589.67 1550.25 589.33 1549.89 589.028 1549.89 589.909 1549.71 590.182 1549.43 589.651 1549.94 588.655 1549.23 588.369 1549.1 588.997 1548.79 589.041 1548.49 589.13ZM1550.79 581.766C1551.03 581.927 1551.2 581.938 1551.37 581.878 1551.46 581.641 1551.33 581.529 1551.45 581.286 1551.26 581.531 1550.93 581.306 1550.79 581.766ZM1551.38 579.342C1551.46 579.587 1551.27 579.982 1551.15 580.344 1551.48 580.354 1551.63 579.773 1551.84 579.403 1551.66 579.299 1551.57 579.463 1551.38 579.342ZM1548.43 587.508C1548.57 588.005 1549.26 588.176 1549.59 588.05 1549.77 587.071 1548.85 587.318 1548.43 587.508ZM1551.22 578.005C1551.56 578.03 1551.43 578.326 1551.7 578.386 1551.68 577.997 1551.49 577.704 1551.77 577.145 1551.5 577.17 1551.36 577.56 1551.22 578.005ZM1551.18 575.278C1551.25 575.491 1551.5 575.607 1551.76 575.707 1551.96 575.305 1551.74 575.142 1551.99 574.71 1551.63 574.613 1551.31 574.63 1551.18 575.278ZM1546.32 585.869C1546.5 586.067 1546.7 586.166 1546.95 586.16 1547.05 585.729 1546.68 585.594 1546.81 585.152 1546.6 585.245 1546.45 585.525 1546.32 585.869ZM1548.43 578.416C1548.49 579.166 1549.34 578.74 1549.83 578.599 1549.48 577.763 1548.94 578.806 1548.43 578.416ZM1548.89 577.373C1549.45 577.62 1549.7 576.887 1550.28 577.236 1550.29 576.604 1550.09 576.818 1549.69 576.797 1549.89 576.377 1550.15 576.157 1550.33 575.669 1549.69 575.297 1550.4 574.162 1549.75 573.803 1549.5 574.808 1549.65 575.675 1548.89 577.373ZM1547.51 577.512C1547.36 577.963 1547.62 578.176 1547.34 578.714 1547.66 578.993 1547.83 578.76 1548.07 578.732 1548.05 577.906 1548.39 577.527 1548.36 576.795 1548.1 577.109 1547.89 577.603 1547.51 577.512ZM1548.14 574.627C1547.94 575.435 1548.5 575.804 1548.3 576.616 1549.02 576.21 1549.17 574.89 1549.4 573.787 1549.1 574.141 1548.87 574.774 1548.63 575.34 1548.37 575.144 1548.45 574.776 1548.14 574.627ZM1543.89 584.87C1543.75 585.28 1543.59 585.699 1543.92 585.843 1544.07 585.422 1544.29 584.968 1543.89 584.87ZM1544.96 577.888C1545.47 577.833 1545.87 577.369 1546.49 577.661 1546.81 576.748 1547.15 575.815 1546.38 575.534 1545.88 576.252 1545.35 576.507 1544.96 577.888ZM1545.13 575.26C1545.45 575.247 1545.66 574.868 1545.82 574.316 1545.49 574.314 1545.04 574.839 1545.13 575.26ZM1525.45 627.422C1525.9 627.432 1526.27 627.149 1526.69 627.046 1526.45 626.576 1525.73 627.008 1525.45 627.422ZM1537.85 581.209C1537.79 581.538 1538.42 581.47 1538.23 581.872 1538.88 580.997 1539.97 581.535 1540.61 580.61 1539.9 580.363 1538.73 581.095 1537.85 581.209ZM1535.75 580.872C1535.72 581.039 1535.9 581.079 1536.02 581.16 1536.22 581.293 1535.84 581.771 1535.99 581.944 1536.27 582.051 1536.52 582.1 1536.72 581.958 1536.67 581.474 1536.12 581.289 1536.01 580.833 1535.96 580.969 1535.85 580.879 1535.75 580.872ZM1330.01 616.865C1331.79 613.589 1335.65 609.712 1335.65 609.712 1335.65 609.712 1332.68 611.503 1329.12 615.975 1325.56 620.443 1324.67 625.212 1324.67 625.212 1324.67 625.212 1328.23 620.144 1330.01 616.865ZM1319.2 629.563C1318.79 629.323 1318.54 629.563 1318.4 630.135 1318.79 630.388 1319.07 630.203 1319.2 629.563ZM1324.12 618.375C1323.82 618.156 1323.69 618.501 1323.58 618.906 1323.8 618.871 1324.03 618.823 1324.12 618.375ZM1325.53 616.481C1325.27 616.406 1325.02 616.335 1324.93 616.821 1325.13 616.738 1325.43 616.929 1325.53 616.481ZM1329.29 610.141C1329.35 609.464 1328.76 609.836 1328.51 609.928 1328.56 610.543 1327.99 610.868 1328.26 611.396 1328.71 611.315 1328.87 610.323 1329.29 610.141ZM1318.92 641.37C1318.4 640.916 1318.31 640.899 1317.91 640.417 1318.01 640.136 1318.1 639.862 1318.19 639.589 1317.78 639.287 1317.52 639.541 1317.22 639.603 1317.25 640.028 1317.43 640.299 1317.1 640.662 1317.25 641.126 1317.98 641.255 1317.91 641.846 1318.36 642.075 1318.76 642.11 1318.92 641.37ZM1331.72 607.96C1331.39 608.041 1329.35 608.124 1330.03 606.517 1329.69 606.281 1329.71 607.238 1329.43 607.194 1329.51 607.896 1330.27 608.09 1330.61 608.384 1330.54 608.951 1330.14 608.412 1330.05 608.913 1330.79 609.189 1331.18 608.324 1331.72 607.96ZM1320.85 641.018C1320.91 640.835 1320.98 640.654 1321.04 640.471 1320.52 640.664 1320.53 639.936 1320.2 640.074 1319.94 640.71 1320.11 641.238 1319.57 641.203 1319.5 641.473 1319.89 641.463 1319.74 641.772 1320.29 641.62 1320.04 640.475 1320.85 641.018ZM1334.55 602.282C1334.65 601.743 1334.83 601.163 1334.7 600.763 1334.37 600.658 1334.23 601.156 1333.89 601.018 1333.68 601.428 1333.74 601.682 1333.66 602.021 1334.17 602.2 1334.18 602.547 1334.55 602.282ZM1322.74 637.288C1323.01 637.1 1323.48 636.419 1323.02 636.143 1322.9 636.549 1322.75 636.825 1322.53 636.87 1322.11 636.702 1322.37 636.148 1322.28 635.799 1321.93 635.914 1321.75 636.598 1321.5 637.021 1321.58 637.406 1321.72 637.775 1321.69 638.225 1321.58 638.399 1321.51 638.153 1321.53 637.988 1321.31 637.861 1321.32 638.455 1321.19 638.625 1321.95 639.3 1323.29 638.048 1322.74 637.288ZM1332.19 639.533C1331.99 639.582 1331.85 639.769 1331.74 640.123 1332.16 640.333 1332.14 639.897 1332.19 639.533ZM1316.19 629.422C1316.03 628.997 1316.54 628.695 1316.42 628.413 1315.72 627.985 1315.92 629.067 1315.64 629.627 1315.82 629.561 1315.97 629.363 1316.19 629.422ZM1315.57 631.198C1315.2 630.801 1314.63 632.379 1315 632.516 1315.31 632.289 1315.17 631.532 1315.57 631.198ZM1316.72 626.155C1316.46 626.748 1316.88 626.946 1316.76 627.451 1317.26 627.444 1317.14 626.32 1316.72 626.155ZM1318.06 624.725C1317.75 624.582 1317.67 624.072 1317.37 624.244 1316.96 625.056 1317.81 625.744 1318.06 624.725ZM1314.2 636.741C1313.89 637.427 1314.03 637.864 1313.68 638.569 1313.79 638.617 1313.9 638.67 1314 638.719 1314.24 638.353 1314.56 637.108 1314.2 636.741ZM1317.41 633.659C1317.52 633.164 1316.99 633.217 1316.73 633.178 1316.86 632.835 1317.06 632.72 1317.34 632.822 1317.48 632.301 1317.14 632.06 1317.3 631.537 1316.93 631.543 1316.48 632.753 1316.24 632.146 1316.04 632.398 1315.53 633.122 1315.65 633.462 1316.02 633.762 1316.01 632.883 1316.2 632.61 1316.47 633.141 1315.96 634.135 1316.66 634.423 1316.8 633.795 1317.11 633.749 1317.41 633.659ZM1315.14 641.014C1314.9 640.85 1314.73 640.841 1314.56 640.904 1314.47 641.142 1314.6 641.254 1314.48 641.498 1314.67 641.251 1315.01 641.472 1315.14 641.014ZM1314.55 643.436C1314.47 643.191 1314.66 642.797 1314.78 642.436 1314.45 642.425 1314.3 643.005 1314.1 643.377 1314.27 643.48 1314.37 643.313 1314.55 643.436ZM1317.48 635.28C1317.34 634.78 1316.65 634.611 1316.33 634.734 1316.14 635.712 1317.07 635.464 1317.48 635.28ZM1314.71 644.783C1314.38 644.757 1314.5 644.464 1314.23 644.402 1314.25 644.791 1314.44 645.089 1314.17 645.645 1314.43 645.618 1314.58 645.228 1314.71 644.783ZM1314.72 647.509C1314.65 647.292 1314.41 647.178 1314.15 647.075 1313.95 647.479 1314.17 647.643 1313.92 648.076 1314.28 648.173 1314.59 648.154 1314.72 647.509ZM1319.56 636.913C1319.38 636.712 1319.19 636.618 1318.94 636.62 1318.83 637.049 1319.2 637.187 1319.07 637.629 1319.28 637.533 1319.43 637.255 1319.56 636.913ZM1317.49 644.367C1317.43 643.616 1316.59 644.046 1316.09 644.186 1316.44 645.023 1316.98 643.976 1317.49 644.367ZM1317.03 645.417C1316.48 645.17 1316.23 645.903 1315.65 645.554 1315.64 646.186 1315.84 645.971 1316.23 645.991 1316.04 646.409 1315.78 646.633 1315.6 647.122 1316.23 647.491 1315.52 648.629 1316.17 648.985 1316.43 647.98 1316.27 647.113 1317.03 645.417ZM1318.42 645.275C1318.56 644.817 1318.3 644.61 1318.59 644.071 1318.26 643.796 1318.09 644.023 1317.86 644.056 1317.88 644.878 1317.53 645.261 1317.56 645.992 1317.83 645.678 1318.03 645.185 1318.42 645.275ZM1317.77 648.161C1317.97 647.348 1317.4 646.982 1317.6 646.17 1316.89 646.576 1316.74 647.893 1316.51 648.997 1316.81 648.643 1317.04 648.012 1317.28 647.448 1317.53 647.64 1317.46 648.011 1317.77 648.161ZM1322.04 637.915C1322.18 637.505 1322.34 637.087 1322.01 636.945 1321.86 637.36 1321.64 637.818 1322.04 637.915ZM1320.96 644.9C1320.44 644.952 1320.04 645.415 1319.42 645.128 1319.1 646.037 1318.76 646.97 1319.54 647.25 1320.04 646.536 1320.57 646.276 1320.96 644.9ZM1320.8 647.525C1320.48 647.534 1320.27 647.915 1320.11 648.465 1320.44 648.471 1320.89 647.945 1320.8 647.525ZM1328.06 641.574C1328.12 641.246 1327.48 641.314 1327.68 640.914 1327.02 641.784 1325.94 641.246 1325.29 642.171 1326 642.421 1327.17 641.689 1328.06 641.574ZM1330.16 641.916C1330.19 641.744 1330.01 641.704 1329.89 641.628 1329.69 641.491 1330.07 641.014 1329.92 640.846 1329.64 640.737 1329.39 640.688 1329.19 640.825 1329.24 641.313 1329.8 641.501 1329.9 641.952 1329.95 641.819 1330.06 641.908 1330.16 641.916ZM1334.67 639.125C1333.86 639.848 1333.05 640.651 1332.36 642.635 1332.01 642.304 1331.94 642.83 1331.63 642.616 1332.04 642.069 1331.98 641.466 1332.3 641.019 1331.98 640.912 1332.08 640.553 1331.77 640.446 1331.72 640.583 1331.67 640.718 1331.62 640.86 1330.99 640.643 1331.8 639.584 1331.16 639.371 1330 639.369 1328.98 639.792 1327.9 640.046 1327.92 639.883 1327.85 639.775 1327.77 639.674 1328.12 639.091 1328.6 638.942 1329.05 639.483 1329.43 637.999 1330.53 638.861 1331.07 637.89 1330.78 637.636 1330.64 637.846 1330.39 637.73 1330.53 637.391 1330.74 637.392 1330.48 637.127 1329.81 636.715 1328.28 637.238 1328.1 638.388 1327.18 638.142 1326.73 639.664 1326.05 640.446 1325.5 641.091 1324.54 641.454 1324.63 642.802 1324.31 642.993 1324 643.24 1323.73 643.645 1323.6 645.263 1322.39 645.822 1321.61 646.304 1321.26 646.08 1322.83 642.702 1325.1 639.485 1327.6 635.939 1330.83 632.515 1330.79 632.083 1330.45 631.938 1327.02 635.07 1324.2 638.492 1321.87 641.324 1321.04 644.993 1319.85 644.674 1320.13 644.05 1319.83 644.43 1319.53 644.204 1319.91 642.921 1320.6 642.629 1321.16 641.955 1320.15 641.885 1319.26 642.16 1318.63 643.296 1318.09 643.132 1318.37 642.497 1317.87 642.304 1317.6 642.19 1317.53 642.73 1317.33 642.841 1316.77 642.588 1316.02 642.702 1316.21 641.832 1316.53 641.578 1316.87 642.737 1317.2 642.144 1317.31 640.864 1316.06 640.513 1315.13 640.368 1315.36 639.941 1315.82 640.281 1316.22 640.401 1316.58 640.182 1316.83 639.412 1316.59 638.989 1316.32 639.241 1315.57 638.968 1315.38 638.576 1315.99 637.559 1315.53 636.335 1315.85 635.134 1316.05 635.455 1315.98 635.932 1316.34 636.165 1315.86 636.144 1316.31 636.835 1315.81 637.346 1316.37 637.436 1316.09 638.447 1316.63 638.849 1317.15 638.47 1316.95 637.249 1317.45 637.173 1317.95 637.468 1317.93 638.063 1317.91 638.663 1318.16 638.486 1318.28 637.947 1318.55 637.85 1318.7 638.287 1318.56 638.365 1318.33 638.86 1318.58 639.042 1318.51 639.422 1318.82 639.569 1319.15 639.018 1319.81 638.025 1320.09 637.626 1320.61 638.058 1320.85 637.578 1321.11 637.147 1320.82 636.898 1320.72 637.238 1320.43 636.988 1320.23 636.703 1320.82 636.577 1320.56 636.256 1319.87 635.278 1319.38 636.396 1318.59 635.958 1318.49 636.376 1318.21 636.267 1318.1 636.681 1317.77 636.514 1317.49 636.306 1317.36 636.01 1317.6 636.102 1317.61 635.45 1317.75 635.248 1318 635.354 1317.98 635.626 1318.33 635.675 1318.63 635.209 1318.92 634.7 1319.21 634.18 1319.13 633.743 1318.57 634.207 1318.68 633.608 1319.47 633.571 1320.94 631.751 1320.49 630.48 1320.12 630.705 1320.36 631.195 1320.21 631.628 1319.38 631.352 1319.02 632.6 1318.23 632.441 1318.73 632.477 1318.9 632.689 1318.62 633.423 1318.38 633.309 1318.13 633.197 1317.89 633.073 1318.03 632.592 1318.11 632.149 1317.64 632.007 1317.65 631.429 1317.91 630.866 1317.91 630.541 1317.65 630.367 1317.54 630.695 1317.4 630.939 1316.94 630.605 1317.41 629.844 1316.65 629.942 1316.67 629.035 1317.27 628.475 1317.35 627.568 1317.97 627.801 1317.39 628.718 1317.96 628.971 1318.23 629.083 1318.44 628.964 1318.57 628.622 1318.39 628.076 1318.7 627.9 1318.78 627.288 1319.38 627.589 1318.72 628.194 1318.82 628.58 1319.36 628.598 1319.62 629.102 1320.01 628.665 1319.97 628.714 1320.43 627.544 1320.44 627.758 1320.37 626.591 1319.06 627.495 1318.56 626.867 1318.69 625.935 1319.37 624.804 1319.98 624.52 1320.16 623.089 1318.62 623.561 1318.03 623.115 1318.11 622.884 1318.19 622.66 1318.26 622.428 1318.65 622.502 1318.99 622.47 1319.24 622.086 1319.3 621.163 1319.54 620.583 1320.15 620.135 1320.02 620.497 1319.81 620.919 1320.08 621.06 1320.41 621.385 1320.49 620.86 1320.8 621.078 1320.66 621.41 1320.55 621.742 1320.77 621.861 1320.98 621.869 1321.33 622.32 1321.45 622.027 1321.82 621.372 1321.2 621.29 1320.8 621.078 1320.75 620.49 1320.78 619.838 1321.14 619.018 1320.86 618.963 1320.65 619.169 1320.43 619.317 1320.32 618.657 1321.16 618.042 1320.53 617.612 1320.78 617.068 1321.21 617.135 1321.59 617 1321.65 616.748 1321.52 616.6 1321.27 616.524 1322.29 614.537 1323.22 612.245 1324.6 611.42 1324.71 610.965 1324.37 610.757 1324.51 610.268 1325.03 608.855 1326.28 609.793 1326.65 607.932 1327.2 608.205 1327.31 607.727 1327.4 607.175 1327.84 607.247 1328.16 606.91 1328.52 606.746 1328.92 605.456 1329.71 605.39 1330.08 603.986 1331.01 603.137 1333.84 600.297 1334.85 599.132L1335.27 598.745C1335.27 598.745 1353.98 580.147 1393.47 580.147 1426.73 580.147 1441.28 595.745 1480.78 598.745 1506.69 600.718 1529.63 584.306 1529.63 584.306L1530.03 584.146C1530.9 585.053 1532.91 582.137 1533.61 580.154 1533.95 580.487 1534.02 579.961 1534.33 580.175 1533.93 580.721 1533.98 581.327 1533.66 581.772 1533.98 581.881 1533.88 582.236 1534.2 582.347 1534.25 582.208 1534.29 582.071 1534.35 581.933 1534.98 582.149 1534.17 583.206 1534.8 583.42 1535.96 583.423 1536.99 583.005 1538.07 582.746 1538.04 582.907 1538.12 583.018 1538.19 583.112 1537.84 583.702 1537.36 583.851 1536.91 583.308 1536.53 584.792 1535.44 583.932 1534.9 584.901 1535.18 585.154 1535.33 584.947 1535.57 585.064 1535.44 585.401 1535.22 585.399 1535.49 585.663 1536.16 586.077 1537.68 585.553 1537.86 584.402 1538.78 584.647 1539.24 583.125 1539.91 582.347 1540.47 581.698 1541.42 581.336 1541.33 579.993 1541.65 579.799 1541.97 579.554 1542.23 579.147 1542.37 577.528 1543.58 576.968 1544.35 576.486 1545.09 576.959 1544.48 577.521 1544.57 578.345 1545.19 578.613 1545.67 578.419 1546.11 578.119 1545.84 578.741 1546.13 578.36 1546.43 578.586 1546.06 579.868 1545.37 580.163 1544.81 580.84 1545.81 580.908 1546.71 580.633 1547.33 579.493 1547.87 579.658 1547.6 580.293 1548.1 580.485 1548.37 580.601 1548.43 580.059 1548.64 579.949 1549.19 580.201 1549.95 580.089 1549.75 580.962 1549.43 581.216 1549.1 580.053 1548.77 580.649 1548.66 581.93 1549.9 582.279 1550.83 582.421 1550.61 582.852 1550.14 582.509 1549.75 582.388 1549.39 582.61 1549.14 583.378 1549.38 583.802 1549.65 583.549 1550.39 583.825 1550.58 584.215 1549.98 585.232 1550.44 586.457 1550.12 587.657 1549.92 587.338 1549.99 586.86 1549.62 586.626 1550.11 586.645 1549.66 585.957 1550.16 585.446 1549.6 585.358 1549.88 584.345 1549.33 583.943 1548.81 584.321 1549.02 585.539 1548.51 585.62 1548.01 585.326 1548.04 584.729 1548.05 584.128 1547.81 584.306 1547.68 584.843 1547.41 584.94 1547.27 584.505 1547.4 584.426 1547.64 583.935 1547.38 583.752 1547.46 583.369 1547.15 583.223 1546.81 583.771 1546.16 584.767 1545.87 585.164 1545.36 584.736 1545.11 585.211 1544.86 585.641 1545.15 585.893 1545.25 585.553 1545.53 585.802 1545.74 586.086 1545.14 586.216 1545.41 586.538 1546.1 587.514 1546.58 586.394 1547.37 586.833 1547.48 586.417 1547.75 586.522 1547.86 586.113 1548.2 586.278 1548.48 586.486 1548.6 586.782 1548.37 586.687 1548.36 587.343 1548.22 587.546 1547.97 587.436 1547.99 587.166 1547.63 587.117 1547.33 587.578 1547.04 588.093 1546.75 588.613 1546.83 589.053 1547.4 588.583 1547.29 589.182 1546.49 589.221 1545.03 591.039 1545.48 592.31 1545.84 592.086 1545.61 591.597 1545.76 591.165 1546.59 591.444 1546.94 590.193 1547.74 590.351 1547.23 590.311 1547.06 590.101 1547.34 589.367 1547.59 589.482 1547.84 589.597 1548.08 589.717 1547.94 590.2 1547.86 590.644 1548.32 590.788 1548.32 591.363 1548.06 591.923 1548.05 592.251 1548.32 592.426 1548.42 592.091 1548.56 591.854 1549.02 592.183 1548.55 592.947 1549.32 592.846 1549.29 593.754 1548.69 594.316 1548.62 595.226 1547.99 594.996 1548.58 594.072 1548 593.818 1547.74 593.709 1547.53 593.825 1547.4 594.171 1547.57 594.713 1547.26 594.892 1547.19 595.501 1546.59 595.2 1547.25 594.597 1547.15 594.211 1546.61 594.195 1546.35 593.69 1545.96 594.127 1546 594.081 1545.53 595.25 1545.52 595.032 1545.59 596.201 1546.9 595.298 1547.41 595.924 1547.28 596.86 1546.59 597.989 1545.98 598.275 1545.81 599.704 1547.34 599.231 1547.94 599.678 1547.86 599.908 1547.78 600.132 1547.7 600.366 1547.32 600.29 1546.97 600.323 1546.73 600.707 1546.66 601.629 1546.43 602.208 1545.82 602.654 1545.94 602.294 1546.15 601.873 1545.89 601.732 1545.55 601.405 1545.48 601.931 1545.17 601.714 1545.3 601.379 1545.42 601.051 1545.19 600.93 1544.99 600.92 1544.64 600.472 1544.52 600.765 1544.15 601.421 1544.77 601.503 1545.17 601.714 1545.22 602.303 1545.18 602.952 1544.82 603.775 1545.11 603.826 1545.31 603.623 1545.54 603.475 1545.65 604.133 1544.81 604.748 1545.43 605.177 1545.19 605.724 1544.75 605.657 1544.38 605.793 1544.31 606.044 1544.44 606.193 1544.7 606.266 1543.68 608.254 1540.35 611.124 1538.97 611.951 1538.86 612.407 1534.6 616.25 1534.45 616.736 1533.93 618.147 1523.98 624.138 1521.81 625.854 1532.02 622.062 1534.54 619.173 1532.65 620.528L1536.26 618.09C1535.33 618.932 1533.19 621.971 1530.39 624.319L1529.63 624.851C1529.63 624.851 1506.69 641.26 1480.78 639.29 1441.28 636.289 1426.73 620.694 1393.47 620.694 1353.98 620.694 1335.27 639.29 1335.27 639.29L1334.67 639.125Z" class="MsftOfcThm_Text1_Fill_v2" stroke="none" stroke-width="1" stroke-linecap="butt" stroke-linejoin="miter" stroke-miterlimit="4" fill="#262626" fill-rule="evenodd" fill-opacity="1" clip-rule="evenodd"/></svg>