<svg width="84" height="89" viewBox="0 0 84 89" xmlns="http://www.w3.org/2000/svg" xmlns:xlink="http://www.w3.org/1999/xlink" fill="none" overflow="hidden"><style>
.MsftOfcThm_Background1_Fill_v2 {
 fill:#FFFFFF; 
}
</style>
<path d="M24.4883 34.7893C24.4883 34.7893 24.8847 36.7532 25.4835 38.0399 26.0823 39.3256 26.0599 39.8109 26.9523 40.9389 27.8444 42.067 26.896 41.5375 28.5782 42.9027 30.2613 44.2671 30.2613 44.2671 30.2613 44.2671 30.2613 44.2671 27.991 41.9878 27.4378 40.9614 26.8842 39.9348 26.2854 38.6486 25.9911 37.5768 25.6972 36.5043 25.2341 35.9965 25.1093 34.3595 24.7461 29.601 24.511 34.3039 24.4883 34.7893" class="MsftOfcThm_Background1_Fill_v2" stroke="none" stroke-width="1" stroke-linecap="butt" stroke-linejoin="miter" stroke-miterlimit="4" fill="#FFFFFF" fill-rule="evenodd" fill-opacity="1" clip-rule="evenodd"/><path d="M42.4798 14.2775C42.4798 14.2775 39.2763 14.1834 37.1554 14.7725 35.8306 15.1402 34.3273 15.833 33.031 16.658 31.7346 17.4828 31.3809 17.6006 30.2031 18.5432 29.3539 19.2222 28.4347 20.3106 27.728 21.7248 27.0211 23.1387 26.7854 23.7281 26.3141 24.7888 25.8426 25.8494 25.8428 26.5564 25.6069 27.9703 25.371 29.3847 25.1356 31.623 25.1356 31.623 25.1356 31.623 24.4284 29.1491 25.371 26.0849 25.6069 25.319 25.8059 24.5971 25.9715 23.9454L25.9597 23.8049C24.8323 26.1225 24.1978 28.7369 24.198 31.5035 24.198 41.0448 31.7489 48.7803 41.0557 48.7803 50.3684 48.7803 57.9168 41.0448 57.9168 31.5035 57.9168 22.4559 51.134 15.035 42.495 14.2867L42.4798 14.2775ZM25.0213 55.4759C24.2943 54.8032 23.5652 53.6846 23.5652 53.6846 23.5652 53.6846 23.8141 54.4188 24.722 55.5452 25.63 56.6711 26.8124 57.3377 26.8124 57.3377 26.8124 57.3377 25.7491 56.1488 25.0213 55.4759ZM66.4206 16.4589C67.3968 17.7212 68.2467 19.8233 68.2467 19.8233 68.2467 19.8233 68.0598 18.4405 66.9245 16.3247 65.7873 14.2096 64.0721 12.9654 64.0721 12.9654 64.0721 12.9654 65.4418 15.1971 66.4206 16.4589ZM28.4257 56.7409C27.0237 55.9791 25.3985 54.3976 25.3985 54.3976 25.3985 54.3976 26.1264 55.5882 28.0184 57.0668 29.9116 58.5447 31.9833 58.9916 31.9833 58.9916 31.9833 58.9916 29.8303 57.5009 28.4257 56.7409ZM37.4159 61.4772C34.0962 61.024 41.8959 64.0204 40.6363 63.6754 39.5066 63.3649 32.859 61.2886 29.6772 59.6096 28.7375 59.1142 27.9158 58.6803 26.9372 58.1073 26.5891 57.9028 25.962 57.3607 25.6117 57.135 23.0946 55.517 21.1924 53.3346 20.1675 52.5919 19.1937 51.8866 23.7912 56.71 23.4906 56.6043 21.7229 55.9862 18.0995 51.5672 16.244 48.1203 14.8556 45.543 13.956 42.5469 13.6805 41.6688 12.2663 37.1616 12.178 33.4496 12.2663 26.2023 12.3665 17.9788 19.425 10.4709 21.8997 8.61493 22.5921 8.09606 23.4432 7.24713 24.9047 6.22846 26.8368 4.8831 27.7958 4.00689 31.0911 2.87039 32.9 2.24697 36.9286 1.31763 39.2221 1.19136 48.8555 0.660893 53.3628 3.66596 59.2843 7.2889 60.7898 8.21051 62.1057 9.39505 63.2789 10.7237 65.0624 12.7432 62.5864 9.55055 63.8796 10.7361 64.9405 11.7084 65.6704 12.7592 66.0898 13.3874 66.9733 14.713 66.9037 14.3795 67.4146 15.4199 68.0958 16.8075 68.6518 18.2483 69.1811 21.2222 69.3561 22.2063 69.8632 23.0572 70.1543 23.9044 72.0101 29.2955 70.8616 35.3938 69.8892 40.0781 68.9169 44.762 64.0662 50.5712 62.8189 52.3625 61.6703 54.0123 60.7861 54.8374 55.3067 58.284 49.328 62.0451 43.9062 61.731 43.9062 61.731L41.4978 61.8041C40.0882 61.7558 38.7327 61.6573 37.4159 61.4772Z" class="MsftOfcThm_Background1_Fill_v2" stroke="none" stroke-width="1" stroke-linecap="butt" stroke-linejoin="miter" stroke-miterlimit="4" fill="#FFFFFF" fill-rule="evenodd" fill-opacity="1" clip-rule="evenodd"/><path d="M81.2721 69.0809C81.4118 69.1631 81.4986 69.0809 81.5485 68.8833 81.4113 68.7961 81.3161 68.8595 81.2721 69.0809ZM79.5641 72.9452C79.6701 73.0206 79.7131 72.899 79.7518 72.7615 79.6756 72.7738 79.598 72.7887 79.5641 72.9452ZM79.0953 73.5966C79.1837 73.6228 79.2717 73.6468 79.3023 73.4795 79.2316 73.5084 79.1294 73.4435 79.0953 73.5966ZM77.7927 75.7868C77.7729 76.0208 77.9781 75.8906 78.0626 75.86 78.0452 75.6482 78.2413 75.5359 78.15 75.3534 77.995 75.3816 77.9385 75.7245 77.7927 75.7868ZM81.3726 65.007C81.5527 65.1635 81.5831 65.1697 81.7207 65.3371 81.6872 65.4322 81.6563 65.5271 81.6251 65.621 81.7695 65.7248 81.8545 65.6379 81.9607 65.6174 81.9506 65.4703 81.8881 65.3762 82.0015 65.2511 81.9513 65.0903 81.6997 65.0466 81.7234 64.8443 81.5657 64.7636 81.4288 64.7513 81.3726 65.007ZM76.9526 76.5383C77.0673 76.5106 77.7685 76.4814 77.5367 77.0345 77.6548 77.1176 77.6466 76.7887 77.7419 76.8025 77.7161 76.5601 77.4527 76.4927 77.3361 76.3923 77.3607 76.1969 77.4998 76.3824 77.5283 76.2092 77.2735 76.1143 77.1395 76.413 76.9526 76.5383ZM80.7041 65.1312C80.6814 65.194 80.6602 65.2558 80.6377 65.3176 80.8195 65.2519 80.8128 65.5038 80.9277 65.4562 81.0185 65.236 80.9591 65.0544 81.1453 65.0667 81.1711 64.9728 81.0373 64.9767 81.0851 64.8709 80.8966 64.9228 80.984 65.3176 80.7041 65.1312ZM75.9812 78.4993C75.9457 78.6864 75.8839 78.8854 75.9288 79.0235 76.0423 79.0609 76.0904 78.8888 76.2084 78.9368 76.2818 78.7953 76.2606 78.7062 76.2874 78.5898 76.1131 78.5285 76.108 78.41 75.9812 78.4993ZM80.0511 66.416C79.9586 66.4815 79.7949 66.7159 79.9543 66.8115 79.996 66.672 80.0482 66.5759 80.124 66.5602 80.2667 66.6186 80.1764 66.8106 80.2097 66.9301 80.3312 66.8917 80.3925 66.6551 80.4797 66.5078 80.4512 66.3759 80.4041 66.2492 80.4128 66.093 80.4492 66.0336 80.4785 66.1171 80.469 66.1751 80.5439 66.2188 80.5424 66.0138 80.5847 65.9549 80.3242 65.7231 79.8616 66.1541 80.0511 66.416ZM80.0346 64.7574C80.1783 64.8589 80.1926 64.5358 80.3512 64.6872 80.4782 64.4513 80.3884 64.3407 80.4586 64.134 80.1163 64.0681 79.8437 64.3762 80.0346 64.7574ZM76.7955 65.6401C76.8631 65.623 76.9143 65.5586 76.9484 65.4372 76.8068 65.3636 76.8123 65.5151 76.7955 65.6401ZM75.5412 72.5852C75.8029 72.8626 77.981 70.3284 78.0648 70.0297 77.4107 70.8094 76.9297 71.3483 76.6315 71.2454 76.5482 71.5059 76.054 71.8167 75.9772 72.0552L75.5412 72.5852ZM82.3087 69.1313C82.3674 69.2769 82.1889 69.3826 82.2314 69.4797 82.4743 69.6263 82.4048 69.2537 82.5023 69.0605 82.4386 69.083 82.3869 69.152 82.3087 69.1313ZM82.5147 68.5193C82.6425 68.6549 82.839 68.1117 82.711 68.0641 82.6077 68.1433 82.6526 68.4026 82.5147 68.5193ZM82.1359 70.2586C82.2262 70.0533 82.083 69.985 82.1221 69.8114 81.9492 69.8133 81.9912 70.2014 82.1359 70.2586ZM81.6607 70.7512C81.7688 70.8 81.7958 70.9755 81.8986 70.9173 82.0407 70.6366 81.7477 70.3996 81.6607 70.7512ZM83.0059 66.606C83.1143 66.3682 83.0653 66.2187 83.1841 65.9748 83.1459 65.9575 83.1102 65.9403 83.0742 65.9232 82.9911 66.0509 82.8825 66.479 83.0059 66.606ZM81.8847 67.6699C81.847 67.8415 82.0315 67.8227 82.1211 67.8362 82.0754 67.9543 82.0054 67.9953 81.912 67.9589 81.8603 68.139 81.9779 68.2225 81.9248 68.4027 82.0506 68.4012 82.2056 67.9825 82.2908 68.1938 82.3572 68.1052 82.5332 67.856 82.4919 67.7387 82.3681 67.6346 82.369 67.9386 82.3055 68.033 82.2099 67.8495 82.3872 67.5057 82.1426 67.4072 82.0967 67.6238 81.989 67.6392 81.8847 67.6699ZM82.6799 65.128C82.7612 65.1835 82.8213 65.1873 82.878 65.1666 82.9104 65.0849 82.866 65.046 82.9073 64.9623 82.84 65.0469 82.7256 64.9693 82.6799 65.128ZM82.8818 64.2911C82.9104 64.3759 82.8453 64.5122 82.8032 64.6369 82.9152 64.6405 82.9681 64.4398 83.0393 64.3122 82.9794 64.2764 82.946 64.3331 82.8818 64.2911ZM81.865 67.1097C81.9138 67.2813 82.1508 67.3405 82.2628 67.2969 82.326 66.959 82.0087 67.0443 81.865 67.1097ZM82.8286 63.8299C82.9425 63.8386 82.8996 63.9405 82.9942 63.9615 82.9867 63.827 82.9211 63.7259 83.015 63.5332 82.9232 63.5416 82.8745 63.6761 82.8286 63.8299ZM82.8162 62.8884C82.8395 62.9622 82.9246 63.0021 83.0157 63.0364 83.0839 62.8977 83.0085 62.8417 83.0943 62.6925 82.97 62.6591 82.8604 62.6648 82.8162 62.8884ZM81.1372 66.5439C81.2002 66.6124 81.2663 66.6466 81.3528 66.6444 81.3903 66.4958 81.2603 66.449 81.3062 66.2966 81.2329 66.3288 81.1829 66.4254 81.1372 66.5439ZM81.865 63.9717C81.8831 64.2306 82.1769 64.0835 82.3464 64.0347 82.2252 63.7465 82.0403 64.1062 81.865 63.9717ZM82.0239 63.6116C82.2159 63.697 82.3023 63.4438 82.5032 63.5645 82.5071 63.3462 82.4385 63.4201 82.3014 63.4129 82.3697 63.2677 82.4583 63.1919 82.5211 63.0236 82.3014 62.8952 82.5457 62.5033 82.3219 62.3795 82.233 62.7264 82.2874 63.0256 82.0239 63.6116ZM81.5462 63.6598C81.4941 63.8153 81.5861 63.8889 81.4866 64.0746 81.5991 64.1707 81.6571 64.0903 81.7382 64.0809 81.7314 63.7957 81.85 63.6649 81.8398 63.4121 81.7491 63.5205 81.6783 63.6912 81.5462 63.6598ZM81.7627 62.6638C81.6944 62.9429 81.889 63.0701 81.8206 63.3504 82.0667 63.2102 82.1191 62.7545 82.1987 62.374 82.0944 62.496 82.0155 62.7145 81.9319 62.9098 81.845 62.8424 81.8701 62.7152 81.7627 62.6638ZM80.2993 66.1994C80.2498 66.3408 80.1957 66.4855 80.3082 66.5352 80.3596 66.3901 80.4368 66.2333 80.2993 66.1994ZM80.6645 63.7894C80.8432 63.7704 80.9813 63.6103 81.1945 63.711 81.3051 63.3961 81.4229 63.074 81.1549 62.977 80.983 63.2249 80.7995 63.3128 80.6645 63.7894ZM80.7271 62.8823C80.8375 62.8779 80.9098 62.7469 80.9637 62.5563 80.8517 62.5556 80.6959 62.7371 80.7271 62.8823ZM73.934 80.8866C74.0891 80.89 74.2153 80.7922 74.359 80.7569 74.2779 80.5947 74.0294 80.7437 73.934 80.8866ZM78.2115 64.9358C78.1903 65.0493 78.4107 65.0259 78.3422 65.1645 78.5686 64.8627 78.9439 65.0484 79.1655 64.7292 78.9202 64.6439 78.5167 64.8965 78.2115 64.9358ZM77.4882 64.8193C77.4771 64.8771 77.5414 64.8908 77.5814 64.9188 77.6507 64.9647 77.5201 65.1296 77.5715 65.1892 77.6679 65.2264 77.7546 65.2433 77.8222 65.1943 77.8077 65.027 77.6148 64.9633 77.5788 64.8058 77.5599 64.8529 77.522 64.8218 77.4882 64.8193ZM6.47456 77.2428C7.08881 76.1121 8.42088 74.7737 8.42088 74.7737 8.42088 74.7737 7.39666 75.3918 6.16841 76.9354 4.93895 78.4778 4.63183 80.1237 4.63183 80.1237 4.63183 80.1237 5.86056 78.3747 6.47456 77.2428ZM2.74191 81.6254C2.60226 81.5427 2.51572 81.6254 2.46548 81.823 2.60322 81.9103 2.6984 81.8466 2.74191 81.6254ZM4.44324 77.7639C4.337 77.6882 4.29445 77.8074 4.25648 77.9473 4.33195 77.9351 4.41031 77.9187 4.44324 77.7639ZM4.92623 77.1102C4.83777 77.0845 4.75027 77.0599 4.71903 77.2277 4.7909 77.1991 4.89185 77.2647 4.92623 77.1102ZM6.22675 74.922C6.24776 74.688 6.04132 74.8167 5.95778 74.8484 5.97468 75.0606 5.77838 75.1729 5.86989 75.3549 6.0249 75.3272 6.08116 74.9848 6.22675 74.922ZM2.64767 85.7007C2.46876 85.544 2.4381 85.5385 2.29975 85.3719 2.33403 85.2748 2.36542 85.1804 2.39608 85.0863 2.2529 84.982 2.16574 85.0696 2.05975 85.0908 2.07037 85.2376 2.13266 85.3313 2.01991 85.4564 2.06989 85.6167 2.32172 85.6611 2.29709 85.8652 2.45548 85.9444 2.59238 85.9562 2.64767 85.7007ZM7.06585 74.1693C6.95068 74.1971 6.24855 74.2258 6.48082 73.6712 6.363 73.5896 6.37048 73.9199 6.27632 73.9047 6.30215 74.1471 6.56485 74.214 6.68123 74.3154 6.65732 74.5112 6.51897 74.3253 6.49024 74.4979 6.74473 74.5933 6.87873 74.2946 7.06585 74.1693ZM3.31448 85.5794C3.335 85.5161 3.35794 85.4538 3.37991 85.3905 3.19858 85.4572 3.20438 85.2058 3.08993 85.2534 2.99842 85.4731 3.05878 85.6552 2.87238 85.6433 2.84703 85.7363 2.98055 85.7329 2.93154 85.8396 3.12035 85.7872 3.03319 85.392 3.31448 85.5794ZM8.03983 72.2093C8.07605 72.0234 8.13834 71.823 8.09295 71.6849 7.98019 71.6489 7.93142 71.8206 7.81311 71.773 7.7402 71.9145 7.76144 72.0021 7.73464 72.1192 7.91017 72.181 7.91356 72.3008 8.03983 72.2093ZM3.96539 84.292C4.05714 84.2268 4.22181 83.9919 4.06197 83.8968 4.02116 84.0368 3.96829 84.132 3.89199 84.1476 3.74905 84.0897 3.83887 83.8982 3.80651 83.778 3.68603 83.8176 3.62422 84.0537 3.53682 84.1996 3.56555 84.3326 3.61142 84.4598 3.6037 84.6153 3.56651 84.6752 3.53899 84.5905 3.54696 84.5335 3.47307 84.4895 3.47452 84.6948 3.43179 84.7532 3.69207 84.9862 4.15468 84.5542 3.96539 84.292ZM7.22637 85.0669C7.15835 85.0837 7.10787 85.1484 7.07253 85.2705 7.21459 85.3428 7.20955 85.1926 7.22637 85.0669ZM1.70545 81.5769C1.64751 81.4304 1.82666 81.3261 1.7832 81.2285 1.5403 81.081 1.60936 81.4545 1.51278 81.6477 1.57676 81.6248 1.62795 81.5564 1.70545 81.5769ZM1.49166 82.1898C1.36394 82.0529 1.16667 82.5976 1.29537 82.6447 1.39919 82.5665 1.35259 82.3052 1.49166 82.1898ZM1.88838 80.4492C1.79712 80.6542 1.94198 80.7225 1.90287 80.8966 2.07406 80.8942 2.03325 80.5062 1.88838 80.4492ZM2.34985 79.9557C2.24144 79.9064 2.21452 79.7305 2.11236 79.7896 1.96982 80.0699 2.26307 80.3074 2.34985 79.9557ZM1.01755 84.103C0.909622 84.3399 0.958395 84.4908 0.839844 84.7342 0.877751 84.7506 0.913486 84.7689 0.949461 84.7861 1.03324 84.6596 1.1419 84.23 1.01755 84.103ZM2.12671 83.0393C2.16389 82.8686 1.97967 82.8869 1.89009 82.8734 1.93572 82.7549 2.00599 82.7153 2.10015 82.7503 2.15085 82.5706 2.03279 82.4876 2.08615 82.307 1.96011 82.3089 1.80534 82.7266 1.72035 82.5173 1.65371 82.6039 1.47697 82.8541 1.51922 82.9714 1.64381 83.0748 1.64261 82.7715 1.70635 82.6771 1.80148 82.8606 1.62498 83.2035 1.86788 83.3029 1.91399 83.0861 2.0224 83.0704 2.12671 83.0393ZM1.34124 85.578C1.26 85.5215 1.20039 85.5184 1.14246 85.54 1.11097 85.622 1.15496 85.6609 1.11433 85.745 1.18068 85.6597 1.29605 85.7361 1.34124 85.578ZM1.13982 86.414C1.11121 86.3294 1.17563 86.1934 1.21818 86.0689 1.10544 86.065 1.05352 86.2655 0.982134 86.3938 1.04247 86.4294 1.07612 86.3717 1.13982 86.414ZM2.14904 83.5989C2.10096 83.4265 1.86372 83.3679 1.75242 83.4104 1.68776 83.7481 2.0065 83.6626 2.14904 83.5989ZM1.19389 86.8791C1.07969 86.8699 1.12315 86.769 1.02802 86.7475 1.03599 86.8818 1.1019 86.9846 1.0075 87.1766 1.09876 87.1671 1.14802 87.0327 1.19389 86.8791ZM1.1966 87.8198C1.17376 87.745 1.08963 87.7056 0.999013 87.67 0.930027 87.8094 1.00574 87.8661 0.919931 88.0154 1.04396 88.0488 1.15333 88.0423 1.1966 87.8198ZM2.86784 84.1626C2.80438 84.0931 2.73948 84.0604 2.65246 84.0614 2.61521 84.2092 2.74429 84.2571 2.69886 84.4097 2.77169 84.3763 2.82217 84.2806 2.86784 84.1626ZM2.15096 86.7355C2.13286 86.4761 1.84022 86.6246 1.67024 86.6727 1.79145 86.9617 1.97543 86.6005 2.15096 86.7355ZM1.99584 87.0978C1.80437 87.0123 1.71745 87.2656 1.51753 87.1449 1.51343 87.3632 1.58272 87.2888 1.7189 87.2958 1.65081 87.4402 1.56196 87.5174 1.49918 87.6862 1.7189 87.8137 1.47383 88.2065 1.69862 88.3294 1.78747 87.9825 1.73315 87.6831 1.99584 87.0978ZM2.47296 87.0486C2.52366 86.8905 2.43167 86.8193 2.53163 86.6331 2.41863 86.5382 2.36068 86.6167 2.28004 86.6278 2.28632 86.9117 2.16849 87.0438 2.17791 87.2961 2.2699 87.1877 2.33943 87.0175 2.47296 87.0486ZM2.25047 88.0449C2.31904 87.7641 2.12298 87.6379 2.19204 87.3578 1.94697 87.4978 1.89409 87.9525 1.81562 88.3335 1.91872 88.2113 1.99815 87.9935 2.08121 87.7987 2.16862 87.8651 2.1423 87.993 2.25047 88.0449ZM3.72188 84.5082C3.77188 84.3668 3.8262 84.2224 3.71419 84.1733 3.66155 84.3166 3.58535 84.4748 3.72188 84.5082ZM3.35062 86.9193C3.17147 86.9371 3.03433 87.097 2.81992 86.998 2.70982 87.3116 2.59175 87.6337 2.85976 87.7303 3.03143 87.484 3.21493 87.3944 3.35062 86.9193ZM3.29599 87.8253C3.18566 87.8284 3.11379 87.9599 3.05946 88.15 3.17148 88.152 3.32652 87.9702 3.29599 87.8253ZM5.80003 85.7714C5.8208 85.6582 5.60011 85.6816 5.66965 85.5435 5.44245 85.8439 5.06748 85.6582 4.84631 85.9774 5.0909 86.0638 5.49484 85.811 5.80003 85.7714ZM6.52724 85.8893C6.53835 85.8299 6.4734 85.8162 6.43428 85.7898 6.36426 85.7425 6.49513 85.5781 6.44394 85.5201 6.34784 85.4822 6.25971 85.4653 6.19211 85.5129 6.2078 85.6812 6.40096 85.7459 6.43621 85.9016 6.45553 85.8558 6.49392 85.8864 6.52724 85.8893ZM8.08236 84.9261C7.80204 85.1755 7.52534 85.4526 7.28413 86.1374 7.16558 86.0234 7.13974 86.205 7.03447 86.1309 7.17451 85.9423 7.1552 85.7342 7.26626 85.5797 7.1552 85.5427 7.18972 85.4188 7.08204 85.3819 7.06393 85.4292 7.04847 85.4758 7.03061 85.5248 6.81186 85.45 7.09242 85.0844 6.87294 85.0108 6.47214 85.0103 6.1189 85.1562 5.74465 85.2438 5.75383 85.1878 5.72896 85.1504 5.70192 85.1156 5.82264 84.9142 5.98924 84.8628 6.14473 85.0494 6.27487 84.5373 6.65274 84.835 6.83914 84.4997 6.74015 84.412 6.69113 84.4847 6.60614 84.4446 6.65347 84.3275 6.72807 84.328 6.63536 84.2365 6.40405 84.094 5.87769 84.2746 5.8154 84.6718 5.49886 84.5868 5.34095 85.1122 5.10844 85.3819 4.91673 85.6045 4.58715 85.7301 4.61878 86.1951 4.50675 86.261 4.39954 86.3465 4.30828 86.486 4.26095 87.0448 3.84349 87.2377 3.57596 87.404 3.455 87.3268 3.99681 86.1606 4.77934 85.0504 5.64228 83.8263 6.75874 82.6444 6.74256 82.4954 6.62618 82.4454 5.44115 83.5264 4.46787 84.7075 3.66312 85.6852 3.37725 86.9513 2.9692 86.8415 3.06482 86.6261 2.96051 86.7572 2.85765 86.6792 2.98755 86.2364 3.22538 86.1355 3.41902 85.9027 3.07278 85.8786 2.76421 85.9735 2.54691 86.3658 2.36075 86.3091 2.45636 86.0898 2.28421 86.0234 2.19029 85.9838 2.16759 86.1705 2.09637 86.2086 1.90586 86.1215 1.64413 86.1606 1.71174 85.8602 1.8228 85.7726 1.93822 86.1729 2.05218 85.9681 2.09081 85.5263 1.66079 85.4051 1.3387 85.3551 1.41717 85.2076 1.57628 85.3249 1.71367 85.3665 1.83874 85.2909 1.92421 85.025 1.8414 84.8792 1.7482 84.9661 1.49129 84.8717 1.4261 84.7365 1.6352 84.3854 1.47536 83.9629 1.58522 83.5486 1.65524 83.6594 1.63061 83.8238 1.75713 83.9045 1.58884 83.897 1.74675 84.1355 1.57194 84.312 1.76582 84.3432 1.66876 84.6921 1.85757 84.8307 2.03504 84.7001 1.96622 84.2785 2.13983 84.2522 2.31319 84.3541 2.30401 84.5595 2.29966 84.7667 2.38369 84.7054 2.42691 84.5195 2.52035 84.4859 2.57033 84.6368 2.52373 84.6638 2.44357 84.8345 2.53025 84.8973 2.50393 85.0284 2.61162 85.0791 2.7263 84.8891 2.9523 84.5463 3.05154 84.4086 3.22997 84.5576 3.31278 84.3922 3.40115 84.2432 3.30168 84.1573 3.26667 84.2746 3.16912 84.1884 3.0991 84.0899 3.30337 84.0465 3.21331 83.9356 2.97451 83.5981 2.80598 83.9842 2.53435 83.8328 2.49741 83.9772 2.403 83.9395 2.36486 84.0824 2.24993 84.0247 2.15214 83.953 2.1094 83.8509 2.18956 83.8828 2.19367 83.6575 2.24244 83.5877 2.32888 83.6244 2.32164 83.7183 2.44405 83.7352 2.54763 83.5744 2.64783 83.3986 2.74634 83.2193 2.71954 83.0683 2.52445 83.2287 2.56309 83.0217 2.83665 83.0089 3.34248 82.3809 3.18795 81.9422 3.0624 82.0197 3.14304 82.189 3.09186 82.3384 2.80574 82.2431 2.68212 82.6738 2.40687 82.619 2.58144 82.6313 2.64131 82.7047 2.54425 82.958 2.45902 82.9184 2.37307 82.8798 2.29121 82.8373 2.33854 82.6709 2.36606 82.5181 2.20598 82.4691 2.20816 82.2696 2.29677 82.0753 2.29846 81.963 2.20816 81.9031 2.17146 82.0164 2.12365 82.1004 1.96478 81.9852 2.12606 81.7225 1.86313 81.7566 1.87109 81.4434 2.07826 81.25 2.10482 80.9368 2.31898 81.0175 2.11858 81.334 2.31608 81.4212 2.40832 81.4598 2.47954 81.4188 2.52566 81.3009 2.46482 81.1124 2.57202 81.0515 2.59834 80.8403 2.80502 80.9443 2.57636 81.1529 2.61186 81.2862 2.79705 81.2925 2.88687 81.4666 3.02208 81.3157 3.00807 81.3326 3.16791 80.9289 3.1725 81.0025 3.14811 80.5998 2.69636 80.912 2.52131 80.6949 2.5655 80.3733 2.80333 79.9829 3.01242 79.8848 3.07423 79.3911 2.54353 79.5538 2.3395 79.4 2.36606 79.3203 2.39455 79.2431 2.42015 79.1629 2.55246 79.1883 2.67125 79.1774 2.75624 79.0448 2.77918 78.7261 2.86079 78.5262 3.06964 78.3714 3.02763 78.4965 2.95496 78.6421 3.04622 78.6906 3.16164 78.8029 3.18795 78.6218 3.29395 78.6969 3.24783 78.8114 3.20799 78.9261 3.28526 78.9671 3.35842 78.97 3.47697 79.1255 3.5185 79.0246 3.64695 78.7983 3.4323 78.7701 3.29395 78.6969 3.27729 78.4941 3.2896 78.2691 3.41371 77.9859 3.31447 77.9668 3.24518 78.038 3.16791 78.089 3.1288 77.8613 3.42047 77.649 3.20341 77.5005 3.28791 77.3127 3.43858 77.3359 3.56824 77.2893 3.58924 77.2024 3.54481 77.1514 3.45644 77.1251 3.80872 76.4394 4.13057 75.6481 4.60743 75.3632 4.64461 75.2063 4.52824 75.1346 4.57677 74.9658 4.75665 74.4781 5.1857 74.8016 5.31632 74.1594 5.50345 74.2538 5.54184 74.0886 5.57491 73.8981 5.72582 73.923 5.83423 73.8066 5.96002 73.7501 6.09837 73.3049 6.37073 73.2822 6.49894 72.7974 6.81982 72.5045 7.79745 71.5242 8.14465 71.122L8.29 70.9884C8.29 70.9884 14.7468 64.5693 28.3785 64.5693 39.858 64.5693 44.8806 69.9529 58.5132 70.9884 67.4565 71.6693 75.3741 66.0047 75.3741 66.0047L75.5129 65.9494C75.8152 66.2626 76.5077 65.256 76.7486 64.5715 76.8674 64.6866 76.8923 64.5048 76.9988 64.5787 76.8585 64.7673 76.8781 64.9764 76.7672 65.1299 76.8773 65.1676 76.8428 65.2902 76.9517 65.3286 76.9688 65.2803 76.9845 65.2333 77.0029 65.1855 77.2207 65.2601 76.9413 65.6249 77.1598 65.6988 77.5609 65.6997 77.9144 65.5556 78.2874 65.4663 78.2789 65.5218 78.305 65.5602 78.3313 65.5925 78.2104 65.7963 78.0438 65.8475 77.8885 65.6601 77.7581 66.1723 77.3805 65.8755 77.1941 66.2102 77.2926 66.2973 77.3414 66.2259 77.4274 66.2664 77.3798 66.3826 77.3054 66.3821 77.3979 66.4731 77.6292 66.616 78.1551 66.435 78.2171 66.0378 78.5334 66.1223 78.6923 65.5971 78.9246 65.3286 79.1165 65.1046 79.4456 64.9795 79.4147 64.5159 79.5258 64.449 79.6332 64.3643 79.7245 64.224 79.7721 63.6653 80.1888 63.4719 80.4578 63.3055 80.7113 63.4688 80.5022 63.6629 80.5329 63.9473 80.7446 64.0398 80.911 63.9727 81.0643 63.8691 80.9689 64.0837 81.0715 63.9524 81.1751 64.0304 81.0462 64.4727 80.8081 64.5746 80.614 64.8083 80.9605 64.832 81.269 64.7368 81.4863 64.3435 81.6725 64.4003 81.5764 64.6195 81.7488 64.6859 81.843 64.726 81.8652 64.5389 81.9366 64.5009 82.1274 64.5876 82.3889 64.549 82.3215 64.8503 82.2095 64.9382 82.0955 64.5367 81.9803 64.7424 81.9422 65.1845 82.372 65.305 82.6933 65.354 82.6166 65.503 82.456 65.3844 82.3198 65.3426 82.194 65.4194 82.1086 65.6843 82.1911 65.8308 82.2848 65.7434 82.5412 65.8386 82.6067 65.9733 82.3981 66.3241 82.5572 66.7471 82.4473 67.1612 82.378 67.0511 82.4022 66.8862 82.2759 66.8056 82.4444 66.8121 82.2872 66.5745 82.4616 66.398 82.2679 66.3678 82.3633 66.018 82.175 65.8794 81.997 66.0098 82.067 66.4301 81.8925 66.4584 81.7196 66.3567 81.7285 66.1508 81.7331 65.9431 81.6496 66.0047 81.6066 66.1901 81.5122 66.2234 81.4629 66.0733 81.5102 66.0462 81.5902 65.8765 81.5028 65.8135 81.5288 65.6814 81.4216 65.6309 81.3062 65.82 81.0807 66.1638 80.981 66.3009 80.8035 66.1529 80.72 66.3169 80.6307 66.4656 80.7313 66.5523 80.7666 66.435 80.8636 66.5211 80.9344 66.6192 80.7289 66.6641 80.8204 66.7749 81.0592 67.112 81.227 66.7254 81.4982 66.8768 81.5363 66.7334 81.6302 66.7696 81.6684 66.6284 81.7836 66.6853 81.8806 66.757 81.9238 66.8594 81.8444 66.8263 81.8393 67.0531 81.7915 67.1228 81.7051 67.0852 81.7116 66.9917 81.5885 66.9748 81.4849 67.1342 81.3852 67.3117 81.2862 67.4913 81.3137 67.6432 81.5093 67.4809 81.4709 67.6878 81.1964 67.7011 80.69 68.3286 80.8451 68.7673 80.9706 68.6901 80.89 68.5211 80.9419 68.3721 81.228 68.4684 81.3514 68.0365 81.6261 68.091 81.4513 68.0773 81.3912 68.0049 81.4892 67.7516 81.5737 67.7912 81.6595 67.8308 81.742 67.8723 81.6947 68.0391 81.6674 68.1925 81.827 68.242 81.8249 68.4404 81.7358 68.6338 81.7346 68.7471 81.8249 68.8074 81.8623 68.6918 81.9091 68.6099 82.068 68.7234 81.9069 68.9871 82.1699 68.9523 82.1617 69.2657 81.9548 69.4596 81.9287 69.7737 81.714 69.6945 81.9147 69.3756 81.7174 69.2879 81.6249 69.2502 81.5537 69.2903 81.5076 69.4096 81.5682 69.5967 81.4615 69.6585 81.4349 69.8688 81.228 69.7648 81.4578 69.5566 81.4211 69.4234 81.2369 69.418 81.1459 69.2437 81.0109 69.3946 81.0257 69.3785 80.8646 69.7822 80.861 69.7068 80.8859 70.1103 81.3366 69.7986 81.5117 70.0147 81.4663 70.3377 81.229 70.7277 81.0196 70.8262 80.9597 71.3195 81.4892 71.1562 81.694 71.3105 81.6674 71.3897 81.6397 71.4672 81.6131 71.5479 81.481 71.5218 81.3618 71.5331 81.2768 71.6657 81.2543 71.9839 81.1725 72.1838 80.9631 72.3376 81.0061 72.2135 81.0781 72.0679 80.987 72.0194 80.8719 71.9067 80.8451 72.0882 80.7395 72.0131 80.7845 71.8977 80.8253 71.7845 80.7473 71.7425 80.6753 71.7391 80.5563 71.5846 80.5133 71.6855 80.3875 71.9122 80.6005 71.9402 80.7395 72.0131 80.7562 72.2164 80.7429 72.4405 80.6191 72.7244 80.7181 72.7423 80.7878 72.6721 80.8653 72.6211 80.9037 72.8483 80.6133 73.0605 80.8303 73.2086 80.7444 73.3974 80.5947 73.3742 80.4657 73.4213 80.444 73.5077 80.488 73.5591 80.5766 73.5845 80.2245 74.2707 79.0748 75.2613 78.5977 75.5467 78.5609 75.7042 77.0893 77.0304 77.0398 77.1982 76.8602 77.6852 73.4253 79.7533 72.6778 80.3455 76.1986 79.0364 77.0707 78.0395 76.4166 78.5069L77.6632 77.6655C77.3416 77.9562 76.6038 79.0052 75.6375 79.8155L75.3741 79.9993C75.3741 79.9993 67.4565 85.663 58.5132 84.983 44.8806 83.947 39.858 78.5644 28.3785 78.5644 14.7468 78.5644 8.29 84.983 8.29 84.983L8.08236 84.9261 8.08236 84.9261Z" class="MsftOfcThm_Background1_Fill_v2" stroke="none" stroke-width="1" stroke-linecap="butt" stroke-linejoin="miter" stroke-miterlimit="4" fill="#FFFFFF" fill-rule="evenodd" fill-opacity="1" clip-rule="evenodd"/></svg>